<mxfile host="app.diagrams.net" modified="2020-12-08T11:30:06.148Z" agent="5.0 (Windows NT 10.0; Win64; x64) AppleWebKit/537.36 (KHTML, like Gecko) Chrome/87.0.4280.66 Safari/537.36" etag="7s9OA12-uRHN34EmT9Gz" version="13.11.0" type="github">
  <diagram id="g6geSxZ84_QCmobeVvu-" name="Page-1">
    <mxGraphModel dx="925" dy="537" grid="1" gridSize="10" guides="1" tooltips="1" connect="1" arrows="1" fold="1" page="1" pageScale="1" pageWidth="850" pageHeight="1100" math="0" shadow="0">
      <root>
        <mxCell id="0" />
        <mxCell id="1" parent="0" />
        <mxCell id="A_qzC4zatcRYxj4Vi45R-1" value="" style="ellipse;whiteSpace=wrap;html=1;" parent="1" vertex="1">
          <mxGeometry x="190.5" y="610" width="50" height="10" as="geometry" />
        </mxCell>
        <mxCell id="A_qzC4zatcRYxj4Vi45R-2" value="" style="ellipse;whiteSpace=wrap;html=1;" parent="1" vertex="1">
          <mxGeometry x="413.5" y="610" width="50" height="10" as="geometry" />
        </mxCell>
        <mxCell id="A_qzC4zatcRYxj4Vi45R-3" style="edgeStyle=orthogonalEdgeStyle;rounded=0;orthogonalLoop=1;jettySize=auto;html=1;entryX=0.5;entryY=0.98;entryDx=0;entryDy=0;entryPerimeter=0;shape=link;strokeColor=#0000FF;" parent="1" source="A_qzC4zatcRYxj4Vi45R-6" target="A_qzC4zatcRYxj4Vi45R-14" edge="1">
          <mxGeometry relative="1" as="geometry" />
        </mxCell>
        <mxCell id="A_qzC4zatcRYxj4Vi45R-4" style="edgeStyle=orthogonalEdgeStyle;rounded=0;orthogonalLoop=1;jettySize=auto;html=1;exitX=1;exitY=0;exitDx=0;exitDy=0;exitPerimeter=0;entryX=0;entryY=0.98;entryDx=0;entryDy=0;entryPerimeter=0;shape=link;strokeColor=#0000FF;" parent="1" source="A_qzC4zatcRYxj4Vi45R-6" target="A_qzC4zatcRYxj4Vi45R-17" edge="1">
          <mxGeometry relative="1" as="geometry" />
        </mxCell>
        <mxCell id="A_qzC4zatcRYxj4Vi45R-5" style="edgeStyle=orthogonalEdgeStyle;rounded=0;orthogonalLoop=1;jettySize=auto;html=1;exitX=0.5;exitY=1;exitDx=0;exitDy=0;exitPerimeter=0;entryX=0;entryY=0.5;entryDx=0;entryDy=0;entryPerimeter=0;fillColor=#60a917;strokeColor=#2D7600;shape=link;" parent="1" source="A_qzC4zatcRYxj4Vi45R-6" target="A_qzC4zatcRYxj4Vi45R-36" edge="1">
          <mxGeometry relative="1" as="geometry" />
        </mxCell>
        <mxCell id="A_qzC4zatcRYxj4Vi45R-6" value="" style="shape=mxgraph.cisco.servers.standard_host;html=1;pointerEvents=1;dashed=0;fillColor=#036897;strokeColor=#ffffff;strokeWidth=2;verticalLabelPosition=bottom;verticalAlign=top;align=center;outlineConnect=0;" parent="1" vertex="1">
          <mxGeometry x="180.5" y="630" width="43" height="62" as="geometry" />
        </mxCell>
        <mxCell id="A_qzC4zatcRYxj4Vi45R-7" style="edgeStyle=orthogonalEdgeStyle;rounded=0;orthogonalLoop=1;jettySize=auto;html=1;exitX=0.17;exitY=0.07;exitDx=0;exitDy=0;exitPerimeter=0;entryX=0;entryY=0.98;entryDx=0;entryDy=0;entryPerimeter=0;shape=link;strokeColor=#0000FF;" parent="1" source="A_qzC4zatcRYxj4Vi45R-10" target="A_qzC4zatcRYxj4Vi45R-14" edge="1">
          <mxGeometry relative="1" as="geometry">
            <Array as="points">
              <mxPoint x="428" y="590" />
              <mxPoint x="162" y="590" />
            </Array>
          </mxGeometry>
        </mxCell>
        <mxCell id="A_qzC4zatcRYxj4Vi45R-8" style="edgeStyle=orthogonalEdgeStyle;shape=link;rounded=0;orthogonalLoop=1;jettySize=auto;html=1;exitX=0.5;exitY=0;exitDx=0;exitDy=0;exitPerimeter=0;entryX=0.5;entryY=0.98;entryDx=0;entryDy=0;entryPerimeter=0;strokeColor=#0000FF;" parent="1" source="A_qzC4zatcRYxj4Vi45R-10" target="A_qzC4zatcRYxj4Vi45R-17" edge="1">
          <mxGeometry relative="1" as="geometry" />
        </mxCell>
        <mxCell id="A_qzC4zatcRYxj4Vi45R-9" style="edgeStyle=orthogonalEdgeStyle;rounded=0;orthogonalLoop=1;jettySize=auto;html=1;entryX=1;entryY=0.5;entryDx=0;entryDy=0;entryPerimeter=0;fillColor=#60a917;strokeColor=#2D7600;shape=link;" parent="1" source="A_qzC4zatcRYxj4Vi45R-10" target="A_qzC4zatcRYxj4Vi45R-36" edge="1">
          <mxGeometry relative="1" as="geometry">
            <Array as="points">
              <mxPoint x="440" y="775" />
            </Array>
          </mxGeometry>
        </mxCell>
        <mxCell id="A_qzC4zatcRYxj4Vi45R-10" value="" style="shape=mxgraph.cisco.servers.standard_host;html=1;pointerEvents=1;dashed=0;fillColor=#036897;strokeColor=#ffffff;strokeWidth=2;verticalLabelPosition=bottom;verticalAlign=top;align=center;outlineConnect=0;" parent="1" vertex="1">
          <mxGeometry x="420.5" y="630" width="43" height="62" as="geometry" />
        </mxCell>
        <mxCell id="A_qzC4zatcRYxj4Vi45R-11" style="edgeStyle=orthogonalEdgeStyle;shape=link;rounded=0;orthogonalLoop=1;jettySize=auto;html=1;entryX=0.5;entryY=1;entryDx=0;entryDy=0;entryPerimeter=0;strokeColor=#FF0000;" parent="1" source="A_qzC4zatcRYxj4Vi45R-14" target="A_qzC4zatcRYxj4Vi45R-22" edge="1">
          <mxGeometry relative="1" as="geometry" />
        </mxCell>
        <mxCell id="A_qzC4zatcRYxj4Vi45R-12" style="edgeStyle=orthogonalEdgeStyle;shape=link;rounded=0;orthogonalLoop=1;jettySize=auto;html=1;exitX=1;exitY=0;exitDx=0;exitDy=0;exitPerimeter=0;entryX=0;entryY=1;entryDx=0;entryDy=0;entryPerimeter=0;strokeColor=#FF0000;" parent="1" source="A_qzC4zatcRYxj4Vi45R-14" target="A_qzC4zatcRYxj4Vi45R-23" edge="1">
          <mxGeometry relative="1" as="geometry">
            <Array as="points">
              <mxPoint x="242" y="320" />
              <mxPoint x="410" y="320" />
            </Array>
          </mxGeometry>
        </mxCell>
        <mxCell id="A_qzC4zatcRYxj4Vi45R-13" style="edgeStyle=orthogonalEdgeStyle;shape=link;rounded=0;orthogonalLoop=1;jettySize=auto;html=1;strokeColor=#00FF00;" parent="1" source="A_qzC4zatcRYxj4Vi45R-14" target="A_qzC4zatcRYxj4Vi45R-17" edge="1">
          <mxGeometry relative="1" as="geometry" />
        </mxCell>
        <mxCell id="A_qzC4zatcRYxj4Vi45R-14" value="" style="shape=mxgraph.cisco.switches.workgroup_switch;html=1;pointerEvents=1;dashed=0;fillColor=#036897;strokeColor=#ffffff;strokeWidth=2;verticalLabelPosition=bottom;verticalAlign=top;align=center;outlineConnect=0;" parent="1" vertex="1">
          <mxGeometry x="162" y="440" width="80" height="30" as="geometry" />
        </mxCell>
        <mxCell id="A_qzC4zatcRYxj4Vi45R-15" style="edgeStyle=orthogonalEdgeStyle;shape=link;rounded=0;orthogonalLoop=1;jettySize=auto;html=1;strokeColor=#FF0000;" parent="1" source="A_qzC4zatcRYxj4Vi45R-17" target="A_qzC4zatcRYxj4Vi45R-23" edge="1">
          <mxGeometry relative="1" as="geometry" />
        </mxCell>
        <mxCell id="A_qzC4zatcRYxj4Vi45R-16" style="edgeStyle=orthogonalEdgeStyle;shape=link;rounded=0;orthogonalLoop=1;jettySize=auto;html=1;exitX=0.16;exitY=0.23;exitDx=0;exitDy=0;exitPerimeter=0;entryX=0;entryY=1;entryDx=0;entryDy=0;entryPerimeter=0;strokeColor=#FF0000;" parent="1" source="A_qzC4zatcRYxj4Vi45R-17" target="A_qzC4zatcRYxj4Vi45R-22" edge="1">
          <mxGeometry relative="1" as="geometry">
            <Array as="points">
              <mxPoint x="415" y="340" />
              <mxPoint x="170" y="340" />
            </Array>
          </mxGeometry>
        </mxCell>
        <mxCell id="A_qzC4zatcRYxj4Vi45R-17" value="" style="shape=mxgraph.cisco.switches.workgroup_switch;html=1;pointerEvents=1;dashed=0;fillColor=#036897;strokeColor=#ffffff;strokeWidth=2;verticalLabelPosition=bottom;verticalAlign=top;align=center;outlineConnect=0;" parent="1" vertex="1">
          <mxGeometry x="402" y="440" width="80" height="30" as="geometry" />
        </mxCell>
        <mxCell id="A_qzC4zatcRYxj4Vi45R-18" style="edgeStyle=orthogonalEdgeStyle;rounded=0;orthogonalLoop=1;jettySize=auto;html=1;entryX=0.98;entryY=0.5;entryDx=0;entryDy=0;entryPerimeter=0;strokeColor=#FF8000;shape=link;" parent="1" source="A_qzC4zatcRYxj4Vi45R-20" target="A_qzC4zatcRYxj4Vi45R-17" edge="1">
          <mxGeometry relative="1" as="geometry">
            <Array as="points">
              <mxPoint x="470" y="517" />
              <mxPoint x="470" y="455" />
            </Array>
          </mxGeometry>
        </mxCell>
        <mxCell id="A_qzC4zatcRYxj4Vi45R-19" style="edgeStyle=orthogonalEdgeStyle;rounded=0;orthogonalLoop=1;jettySize=auto;html=1;entryX=0.98;entryY=0.5;entryDx=0;entryDy=0;entryPerimeter=0;strokeColor=#FF8000;shape=link;" parent="1" source="A_qzC4zatcRYxj4Vi45R-20" target="A_qzC4zatcRYxj4Vi45R-14" edge="1">
          <mxGeometry relative="1" as="geometry" />
        </mxCell>
        <mxCell id="A_qzC4zatcRYxj4Vi45R-20" value="" style="shape=mxgraph.cisco.security.firewall;html=1;pointerEvents=1;dashed=0;fillColor=#036897;strokeColor=#ffffff;strokeWidth=2;verticalLabelPosition=bottom;verticalAlign=top;align=center;outlineConnect=0;" parent="1" vertex="1">
          <mxGeometry x="692" y="483.5" width="29" height="67" as="geometry" />
        </mxCell>
        <mxCell id="A_qzC4zatcRYxj4Vi45R-21" value="" style="shape=mxgraph.cisco.security.firewall;html=1;pointerEvents=1;dashed=0;fillColor=#036897;strokeColor=#ffffff;strokeWidth=2;verticalLabelPosition=bottom;verticalAlign=top;align=center;outlineConnect=0;" parent="1" vertex="1">
          <mxGeometry x="742" y="483.5" width="29" height="67" as="geometry" />
        </mxCell>
        <mxCell id="A_qzC4zatcRYxj4Vi45R-22" value="" style="shape=mxgraph.cisco.switches.layer_3_switch;html=1;pointerEvents=1;dashed=0;fillColor=#036897;strokeColor=#ffffff;strokeWidth=2;verticalLabelPosition=bottom;verticalAlign=top;align=center;outlineConnect=0;" parent="1" vertex="1">
          <mxGeometry x="170" y="230" width="64" height="64" as="geometry" />
        </mxCell>
        <mxCell id="A_qzC4zatcRYxj4Vi45R-23" value="" style="shape=mxgraph.cisco.switches.layer_3_switch;html=1;pointerEvents=1;dashed=0;fillColor=#036897;strokeColor=#ffffff;strokeWidth=2;verticalLabelPosition=bottom;verticalAlign=top;align=center;outlineConnect=0;" parent="1" vertex="1">
          <mxGeometry x="410" y="230" width="64" height="64" as="geometry" />
        </mxCell>
        <mxCell id="A_qzC4zatcRYxj4Vi45R-24" value="Leaf_SW2" style="text;html=1;align=center;verticalAlign=middle;resizable=0;points=[];autosize=1;" parent="1" vertex="1">
          <mxGeometry x="100" y="440" width="70" height="20" as="geometry" />
        </mxCell>
        <mxCell id="A_qzC4zatcRYxj4Vi45R-25" value="Leaf_SW1" style="text;html=1;align=center;verticalAlign=middle;resizable=0;points=[];autosize=1;" parent="1" vertex="1">
          <mxGeometry x="474" y="440" width="70" height="20" as="geometry" />
        </mxCell>
        <mxCell id="A_qzC4zatcRYxj4Vi45R-26" value="Spine_SW2" style="text;html=1;align=center;verticalAlign=middle;resizable=0;points=[];autosize=1;" parent="1" vertex="1">
          <mxGeometry x="95" y="252" width="80" height="20" as="geometry" />
        </mxCell>
        <mxCell id="A_qzC4zatcRYxj4Vi45R-27" value="Spine_SW1" style="text;html=1;align=center;verticalAlign=middle;resizable=0;points=[];autosize=1;" parent="1" vertex="1">
          <mxGeometry x="464" y="252" width="80" height="20" as="geometry" />
        </mxCell>
        <mxCell id="A_qzC4zatcRYxj4Vi45R-28" value="Control Node" style="text;html=1;align=center;verticalAlign=middle;resizable=0;points=[];autosize=1;" parent="1" vertex="1">
          <mxGeometry x="90.5" y="640" width="90" height="20" as="geometry" />
        </mxCell>
        <mxCell id="A_qzC4zatcRYxj4Vi45R-29" value="FW cluster" style="text;html=1;align=center;verticalAlign=middle;resizable=0;points=[];autosize=1;" parent="1" vertex="1">
          <mxGeometry x="701" y="463.5" width="70" height="20" as="geometry" />
        </mxCell>
        <mxCell id="A_qzC4zatcRYxj4Vi45R-30" value="VPC peer link" style="text;html=1;align=center;verticalAlign=middle;resizable=0;points=[];autosize=1;" parent="1" vertex="1">
          <mxGeometry x="270" y="450" width="90" height="20" as="geometry" />
        </mxCell>
        <mxCell id="A_qzC4zatcRYxj4Vi45R-31" style="edgeStyle=orthogonalEdgeStyle;shape=link;rounded=0;orthogonalLoop=1;jettySize=auto;html=1;entryX=0;entryY=0.5;entryDx=0;entryDy=0;entryPerimeter=0;strokeColor=#00FF00;" parent="1" target="A_qzC4zatcRYxj4Vi45R-23" edge="1">
          <mxGeometry relative="1" as="geometry">
            <mxPoint x="234" y="261.5" as="sourcePoint" />
            <mxPoint x="394" y="261.5" as="targetPoint" />
          </mxGeometry>
        </mxCell>
        <mxCell id="A_qzC4zatcRYxj4Vi45R-32" value="&lt;span style=&quot;font-family: &amp;#34;calibri&amp;#34; , sans-serif ; text-transform: uppercase&quot;&gt;&lt;font style=&quot;font-size: 10px&quot; color=&quot;#0000ff&quot;&gt;CTRL_PXE_VLAN&lt;br&gt;ctrl_mgmt_vlan, ctrl_pub_api_vlan,&lt;br&gt;ctrl_sto_acc_vlan, &lt;/font&gt;&lt;font style=&quot;font-size: 10px&quot;&gt;&lt;font style=&quot;background-color: rgb(255 , 255 , 255)&quot; color=&quot;#00ff00&quot;&gt;CTRL_ext_mgmt_vlan&lt;/font&gt;&lt;br&gt;&lt;font color=&quot;#0000ff&quot;&gt;CTRL_INFRA_OUT_VLAN&lt;/font&gt;&lt;br&gt;&lt;/font&gt;&lt;/span&gt;" style="whiteSpace=wrap;html=1;strokeColor=#0000FF;" parent="1" vertex="1">
          <mxGeometry x="50" y="490" width="140.5" height="90" as="geometry" />
        </mxCell>
        <mxCell id="A_qzC4zatcRYxj4Vi45R-33" value="&lt;font style=&quot;font-size: 10px&quot;&gt;&lt;font style=&quot;font-size: 10px&quot;&gt;&lt;font face=&quot;calibri, sans-serif&quot; style=&quot;color: rgb(0 , 0 , 255) ; font-size: 10px&quot;&gt;&lt;span style=&quot;text-transform: uppercase&quot;&gt;CTRL_PXE_VLAN&lt;br&gt;ctrl_mgmt_vlan, ctrl_pub_api_vlan,&lt;/span&gt;&lt;/font&gt;&lt;br&gt;&lt;font face=&quot;calibri, sans-serif&quot; style=&quot;font-size: 10px&quot;&gt;&lt;span style=&quot;text-transform: uppercase&quot;&gt;&lt;font color=&quot;#0000ff&quot;&gt;ctrl_sto_acc_vlan, &lt;/font&gt;&lt;font color=&quot;#00ff00&quot;&gt;CTRL_ext_mgmt_vlan&lt;/font&gt;&lt;font color=&quot;#0000ff&quot;&gt;,&lt;/font&gt;&lt;br&gt;&lt;font color=&quot;#0000ff&quot;&gt;CTRL_INFRA_OUT_VLAN,&lt;/font&gt;&lt;/span&gt;&lt;/font&gt;&lt;br&gt;&lt;font face=&quot;calibri, sans-serif&quot; style=&quot;font-size: 10px&quot; color=&quot;#ff0000&quot;&gt;&lt;span style=&quot;text-transform: uppercase&quot;&gt;EXT-MGMT-OUT_VLAN,&lt;br&gt;EXT-PUB-API_VLAN, INFRA-OUT&lt;/span&gt;&lt;/font&gt;&lt;/font&gt;&lt;/font&gt;&lt;font style=&quot;font-size: 10px&quot; color=&quot;#0000ff&quot;&gt;&lt;br&gt;&lt;/font&gt;" style="whiteSpace=wrap;html=1;strokeColor=#FF8000;" parent="1" vertex="1">
          <mxGeometry x="500" y="460" width="130" height="130" as="geometry" />
        </mxCell>
        <mxCell id="A_qzC4zatcRYxj4Vi45R-34" value="&lt;span style=&quot;color: rgb(255 , 0 , 0) ; font-family: &amp;#34;calibri&amp;#34; , sans-serif ; font-size: 10px ; text-transform: uppercase&quot;&gt;EXT-MGMT-OUT_VLAN,&lt;/span&gt;&lt;br style=&quot;color: rgb(255 , 0 , 0) ; font-family: &amp;#34;calibri&amp;#34; , sans-serif ; font-size: 10px ; text-transform: uppercase&quot;&gt;&lt;span style=&quot;color: rgb(255 , 0 , 0) ; font-family: &amp;#34;calibri&amp;#34; , sans-serif ; font-size: 10px ; text-transform: uppercase&quot;&gt;EXT-PUB-API_VLAN, INFRA_OUT&lt;/span&gt;&lt;font style=&quot;font-size: 10px&quot; color=&quot;#0000ff&quot;&gt;&lt;br&gt;&lt;/font&gt;" style="whiteSpace=wrap;html=1;strokeColor=#FF0000;" parent="1" vertex="1">
          <mxGeometry x="375" y="350" width="125" height="50" as="geometry" />
        </mxCell>
        <mxCell id="A_qzC4zatcRYxj4Vi45R-35" style="edgeStyle=orthogonalEdgeStyle;rounded=0;orthogonalLoop=1;jettySize=auto;html=1;fillColor=#60a917;strokeColor=#2D7600;shape=link;" parent="1" source="A_qzC4zatcRYxj4Vi45R-36" target="A_qzC4zatcRYxj4Vi45R-37" edge="1">
          <mxGeometry relative="1" as="geometry" />
        </mxCell>
        <mxCell id="A_qzC4zatcRYxj4Vi45R-36" value="" style="shape=mxgraph.cisco.switches.layer_2_remote_switch;html=1;pointerEvents=1;dashed=0;fillColor=#60a917;strokeColor=#2D7600;strokeWidth=2;verticalLabelPosition=bottom;verticalAlign=top;align=center;outlineConnect=0;fontColor=#ffffff;" parent="1" vertex="1">
          <mxGeometry x="280" y="760" width="70.5" height="30" as="geometry" />
        </mxCell>
        <mxCell id="A_qzC4zatcRYxj4Vi45R-37" value="" style="shape=mxgraph.cisco.routers.router;html=1;pointerEvents=1;dashed=0;fillColor=#60a917;strokeColor=#2D7600;strokeWidth=2;verticalLabelPosition=bottom;verticalAlign=top;align=center;outlineConnect=0;fontColor=#ffffff;" parent="1" vertex="1">
          <mxGeometry x="285.25" y="860" width="60" height="43" as="geometry" />
        </mxCell>
        <mxCell id="A_qzC4zatcRYxj4Vi45R-38" value="OOB SW" style="text;html=1;align=center;verticalAlign=middle;resizable=0;points=[];autosize=1;" parent="1" vertex="1">
          <mxGeometry x="290.5" y="740" width="60" height="20" as="geometry" />
        </mxCell>
        <mxCell id="A_qzC4zatcRYxj4Vi45R-39" value="IPMI" style="text;html=1;align=center;verticalAlign=middle;resizable=0;points=[];autosize=1;" parent="1" vertex="1">
          <mxGeometry x="162" y="692" width="40" height="20" as="geometry" />
        </mxCell>
        <mxCell id="A_qzC4zatcRYxj4Vi45R-40" value="IPMI" style="text;html=1;align=center;verticalAlign=middle;resizable=0;points=[];autosize=1;" parent="1" vertex="1">
          <mxGeometry x="405" y="692" width="40" height="20" as="geometry" />
        </mxCell>
        <mxCell id="A_qzC4zatcRYxj4Vi45R-41" value="IPMI" style="text;html=1;align=center;verticalAlign=middle;resizable=0;points=[];autosize=1;" parent="1" vertex="1">
          <mxGeometry x="716" y="563.5" width="40" height="20" as="geometry" />
        </mxCell>
        <mxCell id="A_qzC4zatcRYxj4Vi45R-42" value="&lt;span style=&quot;color: rgba(0 , 0 , 0 , 0) ; font-family: monospace ; font-size: 0px&quot;&gt;%3CmxGraphModel%3E%3Croot%3E%3CmxCell%20id%3D%220%22%2F%3E%3CmxCell%20id%3D%221%22%20parent%3D%220%22%2F%3E%3CmxCell%20id%3D%222%22%20value%3D%2210.7.10.3%2F24%22%20style%3D%22text%3Bhtml%3D1%3Balign%3Dcenter%3BverticalAlign%3Dmiddle%3Bresizable%3D0%3Bpoints%3D%5B%5D%3Bautosize%3D1%3B%22%20vertex%3D%221%22%20parent%3D%221%22%3E%3CmxGeometry%20x%3D%22199.5%22%20y%3D%22540%22%20width%3D%2280%22%20height%3D%2220%22%20as%3D%22geometry%22%2F%3E%3C%2FmxCell%3E%3C%2Froot%3E%3C%2FmxGraphModel%3E&lt;/span&gt;" style="text;html=1;align=center;verticalAlign=middle;resizable=0;points=[];autosize=1;" parent="1" vertex="1">
          <mxGeometry x="330" y="850" width="20" height="20" as="geometry" />
        </mxCell>
        <mxCell id="A_qzC4zatcRYxj4Vi45R-43" value="IPMI Def GW: 172.16.7.1/27" style="text;html=1;align=center;verticalAlign=middle;resizable=0;points=[];autosize=1;" parent="1" vertex="1">
          <mxGeometry x="150" y="840" width="170" height="20" as="geometry" />
        </mxCell>
        <mxCell id="A_qzC4zatcRYxj4Vi45R-44" value="OOB GW" style="text;html=1;align=center;verticalAlign=middle;resizable=0;points=[];autosize=1;" parent="1" vertex="1">
          <mxGeometry x="215.25" y="870" width="70" height="20" as="geometry" />
        </mxCell>
        <mxCell id="A_qzC4zatcRYxj4Vi45R-45" value="P0/0" style="text;html=1;align=center;verticalAlign=middle;resizable=0;points=[];autosize=1;" parent="1" vertex="1">
          <mxGeometry x="750" y="543.5" width="40" height="20" as="geometry" />
        </mxCell>
        <mxCell id="A_qzC4zatcRYxj4Vi45R-46" value="P0/0" style="text;html=1;align=center;verticalAlign=middle;resizable=0;points=[];autosize=1;" parent="1" vertex="1">
          <mxGeometry x="700" y="543.5" width="40" height="20" as="geometry" />
        </mxCell>
        <mxCell id="A_qzC4zatcRYxj4Vi45R-47" style="edgeStyle=orthogonalEdgeStyle;rounded=0;orthogonalLoop=1;jettySize=auto;html=1;fillColor=#60a917;strokeColor=#2D7600;shape=link;exitX=0.5;exitY=1;exitDx=0;exitDy=0;exitPerimeter=0;width=2.9411764705882355;" parent="1" source="A_qzC4zatcRYxj4Vi45R-21" target="A_qzC4zatcRYxj4Vi45R-36" edge="1">
          <mxGeometry relative="1" as="geometry">
            <Array as="points">
              <mxPoint x="757" y="840" />
              <mxPoint x="330" y="840" />
            </Array>
            <mxPoint x="736.5" y="557" as="sourcePoint" />
            <mxPoint x="350.5" y="790" as="targetPoint" />
          </mxGeometry>
        </mxCell>
        <mxCell id="A_qzC4zatcRYxj4Vi45R-48" value="" style="whiteSpace=wrap;html=1;strokeColor=#82b366;gradientColor=#ffffff;fillColor=#CCFFE6;shadow=1;" parent="1" vertex="1">
          <mxGeometry x="240.5" y="540" width="40.5" height="20" as="geometry" />
        </mxCell>
        <mxCell id="A_qzC4zatcRYxj4Vi45R-49" value="" style="whiteSpace=wrap;html=1;strokeColor=#82b366;gradientColor=#ffffff;fillColor=#CCFFE6;shadow=1;" parent="1" vertex="1">
          <mxGeometry x="450" y="480" width="40.5" height="20" as="geometry" />
        </mxCell>
        <mxCell id="A_qzC4zatcRYxj4Vi45R-50" value="&lt;span&gt;Flow&amp;nbsp;&lt;/span&gt;&lt;span&gt;Src: CTRL-EXT-MGMT&lt;br&gt;&lt;/span&gt;&lt;span style=&quot;color: rgb(51 , 0 , 26)&quot;&gt;Flow Dst: IPMI&lt;/span&gt;" style="whiteSpace=wrap;html=1;strokeColor=#82b366;gradientColor=#ffffff;fillColor=#CCFFE6;shadow=1;align=left;" parent="1" vertex="1">
          <mxGeometry x="630" y="380" width="160" height="45" as="geometry" />
        </mxCell>
        <mxCell id="A_qzC4zatcRYxj4Vi45R-51" style="edgeStyle=none;orthogonalLoop=1;jettySize=auto;html=1;exitX=0;exitY=0;exitDx=0;exitDy=0;entryX=0;entryY=1;entryDx=0;entryDy=0;strokeColor=#CCFFE6;" parent="1" source="A_qzC4zatcRYxj4Vi45R-53" target="A_qzC4zatcRYxj4Vi45R-50" edge="1">
          <mxGeometry relative="1" as="geometry" />
        </mxCell>
        <mxCell id="A_qzC4zatcRYxj4Vi45R-52" style="edgeStyle=none;orthogonalLoop=1;jettySize=auto;html=1;exitX=1;exitY=0;exitDx=0;exitDy=0;strokeColor=#CCFFE6;" parent="1" source="A_qzC4zatcRYxj4Vi45R-53" edge="1">
          <mxGeometry relative="1" as="geometry">
            <mxPoint x="780" y="430" as="targetPoint" />
          </mxGeometry>
        </mxCell>
        <mxCell id="A_qzC4zatcRYxj4Vi45R-53" value="" style="whiteSpace=wrap;html=1;strokeColor=#82b366;gradientColor=#ffffff;fillColor=#CCFFE6;shadow=1;" parent="1" vertex="1">
          <mxGeometry x="640.5" y="507" width="40.5" height="20" as="geometry" />
        </mxCell>
        <mxCell id="A_qzC4zatcRYxj4Vi45R-54" value="&lt;span&gt;Flow&amp;nbsp;&lt;/span&gt;&lt;span&gt;Src: 172.16.7.30 (IPMI)&lt;br&gt;&lt;/span&gt;&lt;span style=&quot;color: rgb(51 , 0 , 26)&quot;&gt;Flow Dst: IPMI&lt;/span&gt;" style="whiteSpace=wrap;html=1;strokeColor=#82b366;gradientColor=#ffffff;shadow=1;align=left;fillColor=#FFCCFF;" parent="1" vertex="1">
          <mxGeometry x="521" y="667" width="160" height="45" as="geometry" />
        </mxCell>
        <mxCell id="A_qzC4zatcRYxj4Vi45R-55" style="edgeStyle=none;orthogonalLoop=1;jettySize=auto;html=1;exitX=0;exitY=1;exitDx=0;exitDy=0;entryX=0;entryY=0;entryDx=0;entryDy=0;strokeColor=#FFCCFF;" parent="1" source="A_qzC4zatcRYxj4Vi45R-58" target="A_qzC4zatcRYxj4Vi45R-54" edge="1">
          <mxGeometry relative="1" as="geometry" />
        </mxCell>
        <mxCell id="A_qzC4zatcRYxj4Vi45R-56" style="edgeStyle=none;orthogonalLoop=1;jettySize=auto;html=1;exitX=1;exitY=1;exitDx=0;exitDy=0;entryX=1;entryY=0;entryDx=0;entryDy=0;strokeColor=#FFCCFF;" parent="1" source="A_qzC4zatcRYxj4Vi45R-58" target="A_qzC4zatcRYxj4Vi45R-54" edge="1">
          <mxGeometry relative="1" as="geometry" />
        </mxCell>
        <mxCell id="A_qzC4zatcRYxj4Vi45R-57" style="edgeStyle=orthogonalEdgeStyle;rounded=0;orthogonalLoop=1;jettySize=auto;html=1;fillColor=#60a917;strokeColor=#2D7600;shape=link;" parent="1" source="A_qzC4zatcRYxj4Vi45R-20" target="A_qzC4zatcRYxj4Vi45R-36" edge="1">
          <mxGeometry relative="1" as="geometry">
            <Array as="points">
              <mxPoint x="700" y="830" />
              <mxPoint x="351" y="830" />
              <mxPoint x="351" y="775" />
            </Array>
            <mxPoint x="686.5" y="557" as="sourcePoint" />
            <mxPoint x="351" y="820" as="targetPoint" />
          </mxGeometry>
        </mxCell>
        <mxCell id="A_qzC4zatcRYxj4Vi45R-58" value="" style="whiteSpace=wrap;html=1;strokeColor=#82b366;gradientColor=#ffffff;fillColor=#FFCCFF;" parent="1" vertex="1">
          <mxGeometry x="680.5" y="620" width="40.5" height="20" as="geometry" />
        </mxCell>
        <mxCell id="A_qzC4zatcRYxj4Vi45R-59" value="" style="whiteSpace=wrap;html=1;strokeColor=#82b366;gradientColor=#ffffff;fillColor=#FFCCFF;" parent="1" vertex="1">
          <mxGeometry x="345.25" y="800" width="40.5" height="20" as="geometry" />
        </mxCell>
      </root>
    </mxGraphModel>
  </diagram>
</mxfile>
